<svg xmlns="http://www.w3.org/2000/svg" width="147" height="147" viewBox="28.39 1.32 147 147" overflow="visible" style="-webkit-filter:drop-shadow(0 0 5px rgba(0,0,0,.7))" filter="drop-shadow(0 0 5px rgba(0,0,0,.7))"><linearGradient id="a" gradientUnits="userSpaceOnUse" x1="125.57" y1="662.85" x2="105.65" y2="682.77" gradientTransform="translate(0 -614.77)"><stop offset="0" stop-color="#ba0000"/><stop offset="1" stop-color="#9a0000"/></linearGradient><path fill="url(#a)" d="M175.62 137.97L35.68-1.98l19.91-19.91 139.95 139.94z"/><path d="M82.99 18.34c.52-.52.86-.89 1.02-1.11l3.66 3.66-1.27 1.27a10.2 10.2 0 0 0-.8-.88l-1.4-1.38-1.78 1.78 1.15 1.15c.35.35.62.6.81.74l-1.25 1.25a6.78 6.78 0 0 0-.63-.7l-1.26-1.26-2.39 2.38c-.45.45-.77.8-.97 1.07l-1.48-1.48c.25-.2.62-.54 1.12-1.03l5.46-5.46zm-.36 12.86c-.73-.74-1.03-1.54-.88-2.41.13-.76.58-1.52 1.35-2.3 1.72-1.7 3.28-1.86 4.69-.45 1.39 1.39 1.22 2.94-.5 4.66a4.43 4.43 0 0 1-2.27 1.34c-.88.16-1.67-.13-2.4-.85zm4.03-4.06c-.35-.35-.75-.41-1.2-.2-.26.13-.6.41-1.06.86-.45.45-.73.8-.85 1.06-.22.45-.16.85.19 1.2s.74.41 1.18.2c.26-.12.62-.41 1.07-.87.45-.44.74-.8.86-1.06.22-.45.16-.84-.2-1.2zm-1.1 6.83c.17-.13.44-.38.8-.74l3.55-3.54c.36-.36.6-.62.71-.78l1.25 1.25-.35.34a1.5 1.5 0 0 1 1.57.95l-1.29 1.3a1.35 1.35 0 0 0-.32-.75c-.22-.2-.56-.33-1.03-.36l-2.77 2.77c-.38.4-.65.68-.8.88l-1.32-1.32zm3.28 3.28c.17-.13.44-.37.8-.74l6.1-6.08c.35-.36.59-.62.7-.78l1.3 1.3c-.17.12-.42.35-.76.68l-3.2 3.2 1.8-.25c.26-.03.48-.08.65-.14l1.48 1.47-3.5.43-1.46 4.82-1.34-1.33c.09-.15.2-.43.32-.85l.96-3.05-1.75 1.74c-.38.39-.65.68-.8.88l-1.3-1.3zm14.62 5.38c.7.06 1.3.36 1.83.88.6.6.77 1.32.55 2.15a4.9 4.9 0 0 1-1.32 2.05l-1.56 1.56c-.52.52-.86.89-1 1.1L100.58 49a11 11 0 0 0 1.13-1.02l1.54-1.54c.84-.83 1.03-1.48.57-1.94-.3-.3-.6-.48-.87-.5a8.1 8.1 0 0 1-.97 1.17l-1.56 1.56c-.52.52-.86.88-1.01 1.1l-1.37-1.38a10 10 0 0 0 1.13-1.01l1.55-1.53c.48-.48.76-.85.85-1.12.1-.26.03-.51-.21-.75a1.35 1.35 0 0 0-.97-.35l-2.84 2.84a6.8 6.8 0 0 0-.42.46l-.26.3-1.33-1.33c.15-.1.4-.34.75-.69l3.56-3.55c.4-.41.66-.7.76-.83l1.25 1.27-.37.35c.6.07 1.05.26 1.35.55.45.45.65.97.61 1.55zm5.23 10.18l-2.53-2.52c-.67.79-.68 1.51-.01 2.17.43.44.92.7 1.47.81l-1.22 1.22a4.9 4.9 0 0 1-1.48-.96 3 3 0 0 1-.99-2.5c.09-.88.53-1.72 1.34-2.53a4.19 4.19 0 0 1 2.22-1.24 2.5 2.5 0 0 1 2.28.73c.62.63.89 1.32.8 2.08a3.6 3.6 0 0 1-1.14 2.07c-.26.26-.5.48-.74.67zm.06-3.73c-.44-.44-.96-.4-1.57.15l1.4 1.4c.57-.58.62-1.1.17-1.55zM111.43 60c-.73-.74-1.03-1.54-.88-2.41a4.5 4.5 0 0 1 1.35-2.3c1.72-1.7 3.28-1.86 4.69-.46 1.4 1.4 1.23 2.95-.49 4.67a4.43 4.43 0 0 1-2.27 1.34c-.88.16-1.68-.12-2.4-.85zm4.03-4.06c-.35-.35-.75-.41-1.2-.19-.25.12-.6.4-1.06.85-.44.45-.73.8-.85 1.06-.22.45-.16.85.2 1.2.34.35.74.41 1.18.2.25-.12.61-.4 1.07-.86.44-.45.73-.8.85-1.06.22-.45.16-.85-.2-1.2zm6.37 4.09c.62.6.83 1.35.62 2.22-.17.74-.6 1.45-1.27 2.12l-1.56 1.57a8.9 8.9 0 0 0-1 1.09l-1.38-1.37c.2-.15.57-.5 1.12-1.03l1.55-1.53c.86-.85 1.02-1.55.47-2.1-.25-.25-.63-.38-1.15-.4l-2.8 2.81a7.83 7.83 0 0 0-.69.75l-1.33-1.32c.15-.1.4-.34.76-.69l3.5-3.5c.43-.44.7-.73.8-.88l1.27 1.27-.41.4c.64.04 1.14.23 1.5.6zm4.73 13.67c-.28.08-.63.06-1.04-.07-.5-.15-.96-.44-1.39-.86-1.88-1.89-1.5-4.15 1.13-6.79 1.26-1.25 2.48-1.94 3.67-2.07 1.2-.13 2.31.32 3.35 1.36.6.59.91 1.3.97 2.1l-1.3 1.3a3.28 3.28 0 0 0-.91-2.17c-1.12-1.12-2.56-.79-4.34.98-1.8 1.8-2.24 3.15-1.34 4.06.74.74 1.56.65 2.47-.26.1-.09.4-.4.87-.91l1.4 1.39c-.36.3-.74.64-1.13 1.04l-1.32 1.32a10.47 10.47 0 0 0-.93 1 .94.94 0 0 1-.23-.23l.07-1.2zm1.12 2.4c.17-.14.43-.4.8-.76l3.54-3.54c.36-.36.6-.62.72-.77l1.28 1.28c-.16.13-.4.36-.74.7l-3.5 3.5c-.39.38-.66.67-.82.86l-1.28-1.28zm6.6-5.3a1.06 1.06 0 0 1-.32-.81 1.25 1.25 0 0 1 1.2-1.2c.32-.01.6.1.81.31.22.21.32.48.3.8 0 .33-.13.61-.37.85-.23.22-.5.34-.82.35-.33.01-.6-.09-.8-.3zm2.17 3.95l.98.98-1.1 1.1-.2-.22-.27-.3-.49-.48-2.12 2.12c-.5.5-.6.93-.26 1.26.23.24.51.38.83.44l-1.14 1.14a3 3 0 0 1-1.24-.79c-.56-.55-.75-1.13-.57-1.74.14-.46.53-1 1.17-1.64l2.04-2.04.03-.01-.16-.19a4 4 0 0 0-.43-.35l1.1-1.1.57.56.44-.45c.22-.21.38-.4.49-.55l1.32 1.33a3.5 3.5 0 0 0-.52.46l-.47.47zm6.35 7.17l.38.37-1.25 1.25-.37-.37-2.6 2.6c-.36.36-.61.64-.76.84l-1.49-1.49c.23-.17.53-.44.9-.82l2.55-2.54-2.08-2.07-2.53 2.52c-.4.41-.69.72-.83.92l-1.48-1.48c.21-.15.5-.4.84-.75l6.01-6c.35-.36.6-.64.75-.85l1.48 1.48c-.22.16-.5.41-.84.75l-2.15 2.16 2.08 2.07 1.99-2c.46-.46.77-.79.91-1l1.5 1.5c-.2.14-.45.35-.75.65l-2.25 2.26zm-1.75 7.63a2 2 0 0 1-.54-2.13c.21-.66.66-1.34 1.36-2.04l1.56-1.56c.52-.52.86-.88 1-1.1l1.38 1.38c-.2.14-.57.48-1.12 1.02l-1.55 1.53c-.44.44-.7.8-.79 1.08-.12.35-.03.68.27.98.21.21.57.32 1.09.34l2.8-2.81a6.88 6.88 0 0 0 .68-.77l1.33 1.33c-.15.11-.4.35-.74.7l-3.49 3.48c-.45.45-.73.74-.83.88l-1.25-1.25.41-.4a2.34 2.34 0 0 1-1.57-.66zm5.65 5.62a1.9 1.9 0 0 1-.6-1.47l-.4.41-1.2-1.2c.14-.1.4-.34.75-.69l6.02-6.03c.45-.44.73-.74.82-.89l1.3 1.3c-.15.12-.45.4-.88.83l-1.98 1.99c.57.13 1.03.36 1.36.7.6.6.8 1.34.62 2.2-.18.76-.6 1.47-1.26 2.13a4.73 4.73 0 0 1-2.22 1.3c-.95.23-1.73.03-2.34-.58zm3.76-4.1c-.26-.25-.65-.4-1.17-.41l-1.98 1.97c0 .48.13.84.37 1.08.3.3.68.36 1.16.18.38-.13.75-.38 1.11-.74.86-.86 1.03-1.56.5-2.08z" fill="#FFF"/><path d="M30.7-9.86l154.38 154.37M46.58-27.99l154.38 154.38" opacity=".5" fill="none" stroke="#FFF" stroke-dasharray="3 1.5"/></svg>