<svg width="27" height="32" xmlns="http://www.w3.org/2000/svg"><path d="M20.12 0h.23a6.85 6.85 0 0 1-1.73 5.16c-1.02 1.22-2.43 2.4-4.7 2.21a6.65 6.65 0 0 1 1.75-5A7.6 7.6 0 0 1 20.12 0zM27 23.49v.06a18.66 18.66 0 0 1-2.66 5.14c-1.01 1.4-2.26 3.28-4.48 3.28-1.92 0-3.2-1.24-5.17-1.27-2.08-.04-3.22 1.03-5.13 1.3h-.65c-1.4-.2-2.52-1.31-3.34-2.3A20.22 20.22 0 0 1 .92 18.06v-1.43c.15-3.49 1.84-6.32 4.1-7.7a6.91 6.91 0 0 1 4.64-1.07c.78.12 1.57.39 2.27.65.66.26 1.5.7 2.27.68.54-.01 1.06-.29 1.6-.48 1.57-.57 3.1-1.22 5.13-.92 2.44.37 4.16 1.46 5.23 3.12-2.06 1.31-3.68 3.3-3.4 6.66.24 3.07 2.02 4.86 4.25 5.92z" fill="#fff"/></svg>