<svg width="31" height="36" xmlns="http://www.w3.org/2000/svg"><path d="M28.05 27.01a2.97 2.97 0 0 1-.44-1.22c-.12-.5-.24-1.03-.65-1.38a1.58 1.58 0 0 0-.5-.3c.5-1.6.41-3.33-.24-4.88a16.35 16.35 0 0 0-2.87-4.59c-1.05-1.32-2.07-2.58-2.05-4.44.03-2.83.31-8.09-4.68-8.1l-.63.03c-5.58.45-4.1 6.34-4.18 8.3a7.13 7.13 0 0 1-1.39 4 19.72 19.72 0 0 0-3.58 5.96 7.14 7.14 0 0 0-.38 3.29l-.14.14c-.34.36-.6.8-.88 1.1-.26.27-.64.37-1.05.51-.41.15-.86.37-1.14.9-.13.24-.17.5-.17.76 0 .25.04.5.07.73.08.5.15.97.05 1.28-.32.9-.37 1.51-.14 1.96.23.45.7.65 1.24.76 1.07.22 2.52.17 3.66.77l.1-.18-.1.18a5.2 5.2 0 0 0 3.45.64c.72-.16 1.3-.59 1.6-1.24.77 0 1.62-.34 2.98-.41.92-.08 2.07.33 3.4.25a2.48 2.48 0 0 0 2.64 1.83A4.5 4.5 0 0 0 25 31.95l-.16-.13.16.13c.84-1 2.22-1.43 3.14-1.98.46-.28.83-.63.86-1.13.03-.5-.27-1.06-.95-1.82z" fill="#fff" stroke="#fff" stroke-width="4" stroke-linejoin="round"/><path d="M28.05 27.01a2.97 2.97 0 0 1-.44-1.22c-.12-.5-.24-1.03-.65-1.38a1.58 1.58 0 0 0-.5-.3c.5-1.6.41-3.33-.24-4.88a16.35 16.35 0 0 0-2.87-4.59c-1.05-1.32-2.07-2.58-2.05-4.44.03-2.83.31-8.09-4.68-8.1l-.63.03c-5.58.45-4.1 6.34-4.18 8.3a7.13 7.13 0 0 1-1.39 4 19.72 19.72 0 0 0-3.58 5.96 7.14 7.14 0 0 0-.38 3.29l-.14.14c-.34.36-.6.8-.88 1.1-.26.27-.64.37-1.05.51-.41.15-.86.37-1.14.9-.13.24-.17.5-.17.76 0 .25.04.5.07.73.08.5.15.97.05 1.28-.32.9-.37 1.51-.14 1.96.23.45.7.65 1.24.76 1.07.22 2.52.17 3.66.77l.1-.18-.1.18a5.2 5.2 0 0 0 3.45.64c.72-.16 1.3-.59 1.6-1.24.77 0 1.62-.34 2.98-.41.92-.08 2.07.33 3.4.25a2.48 2.48 0 0 0 2.64 1.83A4.5 4.5 0 0 0 25 31.95l-.16-.13.16.13c.84-1 2.22-1.43 3.14-1.98.46-.28.83-.63.86-1.13.03-.5-.27-1.06-.95-1.82z" fill="#202020"/><path d="M28.58 28.8c-.02.32-.24.55-.66.8-.83.5-2.3.94-3.24 2.07a4.11 4.11 0 0 1-2.69 1.58c-.87.07-1.63-.3-2.08-1.2-.27-.52-.16-1.35.07-2.23.24-.87.57-1.77.62-2.5.04-.94.1-1.76.25-2.39.16-.63.4-1.06.85-1.3l.06-.03c.05.81.45 1.64 1.16 1.82.77.2 1.9-.47 2.37-1l.27-.02c.42 0 .77.02 1.12.33.28.23.4.67.52 1.16.11.49.2 1.02.54 1.4.65.72.86 1.2.84 1.52zM12.8 31.1c-.07 1-.63 1.53-1.48 1.72-.85.2-2 0-3.16-.6-1.28-.68-2.8-.6-3.77-.81-.49-.1-.8-.26-.95-.54-.15-.28-.15-.78.16-1.63.15-.48.04-1-.03-1.48-.08-.49-.12-.93.05-1.24.21-.4.53-.55.91-.7.39-.13.85-.24 1.2-.6h.01c.34-.36.59-.8.88-1.12.25-.26.5-.44.87-.44h.02c.06 0 .13 0 .2.02.5.07.94.42 1.35.99l1.2 2.2c.33.66 1 1.4 1.58 2.15.57.75 1.02 1.5.96 2.08zm6-20.47c-.09-.19-.28-.37-.62-.5-.7-.3-1-.33-1.4-.58a2.95 2.95 0 0 0-1.6-.55c-.2 0-.41.03-.61.1-.53.19-.88.57-1.1.78l-.24.18c-.21.15-.43.3-.64.47-.26.2-.34.45-.25.75.09.3.38.64.9.94.33.2.56.45.81.66.13.1.27.2.43.27.16.06.35.11.59.13.56.03.97-.14 1.33-.35.36-.2.67-.46 1.02-.57.73-.23 1.25-.68 1.4-1.12a.73.73 0 0 0-.01-.6z" fill="#fff"/><path d="M16.97 11.7c-.57.3-1.24.66-1.96.66-.71 0-1.28-.33-1.69-.65-.2-.16-.36-.32-.49-.44-.21-.17-.19-.4-.1-.4.15.02.17.22.27.3.12.12.28.28.47.43.39.3.9.6 1.54.6s1.39-.38 1.84-.63c.26-.15.6-.4.86-.6.2-.16.2-.34.37-.32.17.02.04.2-.2.41-.23.2-.6.48-.9.64z" fill="#202020"/><path d="M25.79 23.98h-.26c.2-.62-.24-1.08-1.4-1.6-1.21-.54-2.17-.49-2.34.6l-.02.16-.28.12c-.56.31-.87.88-1.04 1.57-.16.81-.26 1.63-.27 2.46-.03.47-.23 1.11-.42 1.79-1.98 1.41-4.73 2.02-7.06.43-.27-.42-.56-.82-.89-1.2.24 0 .44-.05.6-.12.21-.1.36-.24.43-.43.14-.39 0-.93-.46-1.54a8.35 8.35 0 0 0-2.36-2 3.34 3.34 0 0 1-1.51-1.85 4.1 4.1 0 0 1-.02-2.17c.37-1.3.93-2.53 1.68-3.65.14-.1.05.2-.54 1.29-.52.99-1.5 3.29-.16 5.08.03-1.28.34-2.58.85-3.8.74-1.68 2.3-4.61 2.42-6.94l.38.25c.3.17.5.41.78.64.36.3.83.47 1.3.45.54 0 .97-.18 1.32-.38.38-.22.69-.46.98-.55.61-.2 1.1-.54 1.37-.93a31.77 31.77 0 0 0 2.3 5.9c.37.7 1.12 2.2 1.45 3.99.2-.01.43.02.67.08.85-2.2-.72-4.57-1.43-5.23-.3-.28-.3-.4-.16-.4.77.69 1.8 2.07 2.17 3.63.17.72.2 1.46.02 2.2l.27.13c1.37.66 1.87 1.24 1.63 2.02zM18.87 8.47c.01.54-.16 1.06-.48 1.49a9.3 9.3 0 0 0-.78-.3c.06-.09.2-.18.24-.3.07-.17.1-.36.11-.54v-.03c0-.2-.02-.36-.07-.53a1 1 0 0 0-.25-.42.5.5 0 0 0-.35-.16h-.02a.51.51 0 0 0-.34.14 1 1 0 0 0-.28.4c-.07.17-.1.36-.11.54v.03c0 .11 0 .21.02.31-.26-.12-.52-.2-.8-.27l-.02-.3V8.5c0-.37.05-.69.2-1 .14-.33.32-.56.56-.75.25-.19.5-.28.78-.28h.02c.28 0 .52.08.77.26.25.19.44.42.58.74.15.31.22.66.22 1zm-4.27.37l-.1.04a2 2 0 0 0-.53.25.97.97 0 0 0 0-.34v-.02c0-.15-.04-.3-.1-.43a.84.84 0 0 0-.22-.32.36.36 0 0 0-.24-.1h-.02c-.1 0-.18.05-.25.14a1.23 1.23 0 0 0-.19.82v.02c.01.15.05.3.1.43a.8.8 0 0 0 .27.36l-.23.17-.18.13a1.59 1.59 0 0 1-.36-.54 2.4 2.4 0 0 1-.2-.86c-.02-.32.01-.6.1-.88.09-.29.2-.5.38-.67a.8.8 0 0 1 .55-.26h.04c.2 0 .36.06.53.2.2.15.33.34.45.61.17.4.24.82.2 1.25z" fill="#fff"/><path d="M15.55 9.6c.02.09.14.07.21.1.07.04.12.11.19.11.06 0 .17-.02.18-.09 0-.08-.12-.14-.2-.17-.1-.04-.24-.06-.34 0-.03 0-.05.03-.04.06zm-.73 0c-.02.09-.15.07-.22.1-.06.04-.11.11-.18.11-.07 0-.17-.02-.18-.09-.01-.08.11-.14.2-.17.1-.04.24-.06.34 0 .02 0 .05.03.04.06z" fill="#202020"/></svg>